HIERARCHY
ROOT Hips
{
	OFFSET 0.000000 0.000000 0.000000
	CHANNELS 6 Xposition Yposition Zposition Xrotation Yrotation Zrotation
	JOINT LeftUpLeg_virtual
	{
		OFFSET 0.000000 0.000000 0.000000
		CHANNELS 3 Xrotation Yrotation Zrotation
		JOINT LeftUpLeg
		{
			OFFSET 11.394100 -6.187798 -0.413800
			CHANNELS 3 Xrotation Yrotation Zrotation
			JOINT LeftLeg
			{
				OFFSET 0.430247 -32.302673 3.732800
				CHANNELS 3 Xrotation Yrotation Zrotation
				JOINT LeftFoot
				{
					OFFSET -0.430247 -48.264931 -6.423300
					CHANNELS 3 Xrotation Yrotation Zrotation
					JOINT LeftToeBase
					{
						OFFSET 4.230900 -16.068199 23.438400
						CHANNELS 3 Xrotation Yrotation Zrotation
						JOINT LeftToe_End
						{
							OFFSET 4.510700 0.695400 19.974600
							CHANNELS 3 Xrotation Yrotation Zrotation
							End Site
							{
								OFFSET 0 0 0
							}
						}
					}
				}
			}
		}
	}
	JOINT RightUpLeg_virtual
	{
		OFFSET 0.000000 0.000000 0.000000
		CHANNELS 3 Xrotation Yrotation Zrotation
		JOINT RightUpLeg
		{
			OFFSET -11.333700 -6.187798 -0.413800
			CHANNELS 3 Xrotation Yrotation Zrotation
			JOINT RightLeg
			{
				OFFSET -0.430392 -32.302628 3.733000
				CHANNELS 3 Xrotation Yrotation Zrotation
				JOINT RightFoot
				{
					OFFSET 0.430392 -48.264973 -6.423500
					CHANNELS 3 Xrotation Yrotation Zrotation
					JOINT RightToeBase
					{
						OFFSET -4.230900 -16.068199 23.438400
						CHANNELS 3 Xrotation Yrotation Zrotation
						JOINT RightToe_End
						{
							OFFSET -4.510700 0.695400 19.974600
							CHANNELS 3 Xrotation Yrotation Zrotation
							End Site
							{
								OFFSET 0 0 0
							}
						}
					}
				}
			}
		}
	}
	JOINT Spine_virtual
	{
		OFFSET 0.000000 0.000000 0.000000
		CHANNELS 3 Xrotation Yrotation Zrotation
		JOINT Spine
		{
			OFFSET -0.002400 12.777504 0.315300
			CHANNELS 3 Xrotation Yrotation Zrotation
			JOINT Spine1
			{
				OFFSET -0.002067 5.816869 0.032633
				CHANNELS 3 Xrotation Yrotation Zrotation
				JOINT Spine1_split
				{
					OFFSET -0.002067 5.816869 0.032633
					CHANNELS 3 Xrotation Yrotation Zrotation
					JOINT Spine2
					{
						OFFSET -0.002067 5.816869 0.032633
						CHANNELS 3 Xrotation Yrotation Zrotation
						JOINT Neck_virtual
						{
							OFFSET 0.000000 0.000000 0.000000
							CHANNELS 3 Xrotation Yrotation Zrotation
							JOINT Neck
							{
								OFFSET -0.003700 21.199493 -0.826900
								CHANNELS 3 Xrotation Yrotation Zrotation
								JOINT Head
								{
									OFFSET 0.000000 20.442200 4.834800
									CHANNELS 3 Xrotation Yrotation Zrotation
									JOINT HeadTop_End
									{
										OFFSET 0.000000 34.668396 4.968400
										CHANNELS 3 Xrotation Yrotation Zrotation
										End Site
										{
											OFFSET 0 0 0
										}
									}
								}
							}
						}
						JOINT LeftShoulder_virtual
						{
							OFFSET 0.000000 0.000000 0.000000
							CHANNELS 3 Xrotation Yrotation Zrotation
							JOINT LeftShoulder
							{
								OFFSET 3.288150 8.794197 -1.372250
								CHANNELS 3 Xrotation Yrotation Zrotation
								JOINT LeftShoulder_split
								{
									OFFSET 3.288150 8.794197 -1.372250
									CHANNELS 3 Xrotation Yrotation Zrotation
									JOINT LeftArm
									{
										OFFSET 11.953299 -2.279007 -0.146200
										CHANNELS 3 Xrotation Yrotation Zrotation
										JOINT LeftForeArm
										{
											OFFSET 18.448900 0.000000 0.000000
											CHANNELS 3 Xrotation Yrotation Zrotation
											JOINT LeftHand
											{
												OFFSET 29.527798 0.000000 0.000000
												CHANNELS 3 Xrotation Yrotation Zrotation
												End Site
												{
													OFFSET 0 0 0
												}
											}
										}
									}
								}
							}
						}
						JOINT RightShoulder_virtual
						{
							OFFSET 0.000000 0.000000 0.000000
							CHANNELS 3 Xrotation Yrotation Zrotation
							JOINT RightShoulder
							{
								OFFSET -3.249400 8.794197 -1.372250
								CHANNELS 3 Xrotation Yrotation Zrotation
								JOINT RightShoulder_split
								{
									OFFSET -3.249400 8.794197 -1.372250
									CHANNELS 3 Xrotation Yrotation Zrotation
									JOINT RightArm
									{
										OFFSET -11.953299 -2.279007 -0.146200
										CHANNELS 3 Xrotation Yrotation Zrotation
										JOINT RightForeArm
										{
											OFFSET -18.448900 0.000000 0.000000
											CHANNELS 3 Xrotation Yrotation Zrotation
											JOINT RightHand
											{
												OFFSET -29.527802 0.000000 0.000000
												CHANNELS 3 Xrotation Yrotation Zrotation
												End Site
												{
													OFFSET 0 0 0
												}
											}
										}
									}
								}
							}
						}
					}
				}
			}
		}
	}
}
MOTION
Frames: 8
Frame Time: 0.03333333
-25.442776 87.969872 -11.563578 0.000000 0.000000 0.000000 35.996753 4.275151 -3.697094 -60.446184 -21.735308 23.770600 30.599931 10.678463 -2.756855 5.989083 6.931149 -27.642440 -1.113719 0.000005 -0.000004 0.000000 0.000000 0.000000 35.996753 4.275151 -3.697094 -70.653697 0.866661 -17.391383 49.848387 -7.115026 -1.149509 -10.910173 -2.533384 17.881160 -0.000034 -0.000001 -0.000001 0.000000 0.000000 0.000000 35.996753 4.275151 -3.697094 11.173623 1.815632 0.597588 9.606816 1.909022 0.899773 0.000000 0.000000 0.000000 0.000000 0.000000 0.000000 9.603337 2.011866 0.811204 -0.524620 -2.137135 -0.972091 -33.188231 -13.301682 4.013189 0.000000 0.000000 0.000000 9.603337 2.011866 0.811204 1.414453 -22.723527 -8.784365 0.000000 0.000000 0.000000 11.762090 -10.125583 -53.585399 0.000003 -69.152237 -0.000016 0.000000 0.000000 0.000000 9.603337 2.011866 0.811204 3.076676 26.719389 7.630344 0.000000 0.000000 0.000000 -0.858340 44.777901 17.984931 -0.000017 15.067922 0.000000 0.000000 0.000000 0.000000 
-24.514629 86.972527 -11.637156 0.000000 0.000000 0.000000 39.065817 4.224775 -3.447674 -67.372931 -19.910217 22.983277 34.455067 10.980027 -3.010837 4.946529 4.033829 -26.647804 -1.425590 -0.000004 0.000002 0.000000 0.000000 0.000000 39.065817 4.224775 -3.447674 -75.018427 1.694542 -18.269383 51.336129 -6.608190 -1.661895 -10.952237 -2.662106 18.779807 -0.000015 0.000004 -0.000002 0.000000 0.000000 0.000000 39.065817 4.224775 -3.447674 11.451719 2.127124 0.650055 9.969271 2.124029 1.135354 0.000000 0.000000 0.000000 0.000000 0.000000 0.000000 9.956443 2.298935 1.031305 -0.838440 -2.418143 -1.228872 -35.049054 -14.115564 3.169132 0.000000 0.000000 0.000000 9.956443 2.298935 1.031305 1.450527 -23.720933 -8.828585 0.000000 0.000000 0.000000 11.826683 -9.065766 -52.805620 -0.000026 -71.719910 -0.000042 0.000000 0.000000 0.000000 9.956443 2.298935 1.031305 3.294678 27.536632 7.886909 0.000000 0.000000 0.000000 -5.270275 43.242901 15.996347 -0.000018 15.853526 0.000001 0.000000 0.000000 0.000000 
-23.388821 85.944466 -11.572550 0.000000 0.000000 0.000000 42.348358 4.854329 -2.891296 -74.686602 -17.198450 21.490075 37.977351 11.184971 -2.855155 4.020279 0.760845 -25.416625 -1.444615 0.000006 -0.000006 0.000000 0.000000 0.000000 42.348358 4.854329 -2.891296 -79.413844 2.873318 -20.257457 52.967581 -5.889036 -1.866701 -11.129968 -2.833062 19.763195 -0.000131 -0.000002 -0.000003 0.000000 0.000000 0.000000 42.348358 4.854329 -2.891296 11.551271 2.285600 0.707108 10.145566 2.207581 1.318638 0.000000 0.000000 0.000000 0.000000 0.000000 0.000000 10.126046 2.429380 1.208036 -1.038176 -2.677154 -1.574970 -36.658681 -14.801476 1.863104 0.000000 0.000000 0.000000 10.126046 2.429380 1.208036 1.497502 -25.154974 -8.949469 0.000000 0.000000 0.000000 13.817583 -10.051101 -52.570388 0.000026 -73.607009 0.000038 0.000000 0.000000 0.000000 10.126046 2.429380 1.208036 3.280511 27.664711 7.784449 0.000000 0.000000 0.000000 -9.619632 42.447870 14.900322 -0.000002 16.326078 0.000007 0.000000 0.000000 0.000000 
-22.240650 84.748413 -11.436220 0.000000 0.000000 0.000000 45.349434 5.594564 -2.202333 -80.922312 -16.315925 19.897712 41.917486 10.377339 -3.493354 2.932385 0.399695 -24.578559 -1.560282 0.000004 -0.000004 0.000000 0.000000 0.000000 45.349434 5.594564 -2.202333 -83.255307 5.380269 -22.800370 55.087193 -5.338979 -0.753336 -11.481221 -3.042633 20.616455 -0.000250 -0.000002 -0.000002 0.000000 0.000000 0.000000 45.349434 5.594564 -2.202333 11.727493 2.413714 0.528345 10.419626 2.265467 1.337530 0.000000 0.000000 0.000000 0.000000 0.000000 0.000000 10.390026 2.546629 1.219551 -1.528116 -2.995716 -1.675189 -37.973051 -15.665140 0.898762 0.000000 0.000000 0.000000 10.390026 2.546629 1.219551 1.615754 -25.353597 -7.828260 0.000000 0.000000 0.000000 14.967046 -11.945081 -53.301106 0.000069 -74.787785 0.000067 0.000000 0.000000 0.000000 10.390026 2.546629 1.219551 3.298613 27.605137 7.865041 0.000000 0.000000 0.000000 -13.087441 42.442304 12.745416 0.000002 16.666196 0.000009 0.000000 0.000000 0.000000 
-21.262127 83.198532 -11.146845 0.000000 0.000000 0.000000 47.968183 6.387898 -1.488475 -86.265638 -16.854410 18.704191 46.348684 9.865742 -5.061095 1.365159 0.742701 -24.091146 -1.535712 -0.000007 0.000010 0.000000 0.000000 0.000000 47.968183 6.387898 -1.488475 -87.484929 7.327366 -24.536886 57.998183 -4.652493 -1.178816 -12.218061 -3.380694 21.829059 -0.000340 0.000001 -0.000002 0.000000 0.000000 0.000000 47.968183 6.387898 -1.488475 11.934370 2.632822 0.220307 10.795041 2.436694 1.061352 0.000000 0.000000 0.000000 0.000000 0.000000 0.000000 10.760788 2.723265 0.941219 -2.162288 -3.367357 -1.619732 -39.700645 -17.011455 0.064703 0.000000 0.000000 0.000000 10.760788 2.723265 0.941219 1.700057 -25.094728 -6.831341 0.000000 0.000000 0.000000 16.047333 -13.664757 -53.668625 0.000026 -75.388800 0.000022 0.000000 0.000000 0.000000 10.760788 2.723265 0.941219 3.258675 27.386378 7.855297 0.000000 0.000000 0.000000 -15.066783 42.716078 9.793264 0.000003 17.097145 0.000009 0.000000 0.000000 0.000000 
-20.290964 81.395348 -10.601168 0.000000 0.000000 0.000000 50.084872 7.518968 -0.659972 -91.871461 -15.350702 17.274390 50.923015 7.867490 -5.378599 -0.529230 1.134899 -23.495846 -1.509157 0.000008 0.000002 0.000000 0.000000 0.000000 50.084872 7.518968 -0.659972 -91.115905 9.971966 -26.162328 61.558343 -4.327620 -1.772449 -13.364084 -3.882268 23.406368 -0.000390 -0.000001 -0.000007 0.000000 0.000000 0.000000 50.084872 7.518968 -0.659972 12.202554 2.848370 0.034442 11.358267 2.601990 0.991494 0.000000 0.000000 0.000000 0.000000 0.000000 0.000000 11.314936 2.925652 0.871749 -2.990084 -3.737701 -1.772745 -41.592352 -18.230572 -0.951046 0.000000 0.000000 0.000000 11.314936 2.925652 0.871749 1.775717 -25.335050 -6.187618 0.000000 0.000000 0.000000 16.636073 -14.716440 -53.846432 -0.000019 -75.508882 -0.000012 0.000000 0.000000 0.000000 11.314936 2.925652 0.871749 3.167531 27.281640 7.638717 0.000000 0.000000 0.000000 -15.931022 42.588456 6.111245 -0.000002 17.599210 -0.000023 0.000000 0.000000 0.000000 
-19.323389 79.646774 -9.820009 0.000000 0.000000 0.000000 51.670326 8.820615 -0.088854 -96.457311 -14.481232 15.975964 55.391386 6.472906 -5.944037 -2.382202 1.501964 -23.012658 -1.511996 0.000005 -0.000001 0.000000 0.000000 0.000000 51.670326 8.820615 -0.088854 -93.390809 12.965775 -27.864098 64.980453 -4.487918 -1.862883 -14.632506 -4.506029 25.044313 -0.000415 0.000001 0.000006 0.000000 0.000000 0.000000 51.670326 8.820615 -0.088854 12.617325 3.152539 0.137896 12.394619 2.849112 1.471125 0.000000 0.000000 0.000000 0.000000 0.000000 0.000000 12.325654 3.302716 1.353528 -4.012518 -4.158371 -2.287618 -44.420893 -18.990883 -2.757611 0.000000 0.000000 0.000000 12.325654 3.302716 1.353528 1.873080 -25.315372 -5.181176 0.000000 0.000000 0.000000 15.463617 -16.522555 -54.587859 0.000039 -75.404243 0.000029 0.000000 0.000000 0.000000 12.325654 3.302716 1.353528 3.211852 27.754901 7.546147 0.000000 0.000000 0.000000 -17.019933 41.511803 1.267089 0.000011 18.626925 -0.000026 0.000000 0.000000 0.000000 
-18.602581 77.705139 -8.996477 0.000000 0.000000 0.000000 53.163515 9.691203 0.291099 -101.152308 -13.479766 15.253028 60.039514 4.645502 -5.855994 -4.123266 1.858620 -22.819129 -1.630758 0.000005 0.000003 0.000000 0.000000 0.000000 53.163515 9.691203 0.291099 -94.970010 17.979384 -28.596366 69.377489 -6.014299 -0.387094 -16.195538 -5.052622 26.026226 -0.000586 0.000003 0.000498 0.000000 0.000000 0.000000 53.163515 9.691203 0.291099 12.976939 3.621622 0.231690 13.352477 3.275934 1.759577 0.000000 0.000000 0.000000 0.000000 0.000000 0.000000 13.259811 3.799963 1.654126 -5.133308 -4.495064 -2.894209 -47.171199 -19.769282 -4.291605 0.000000 0.000000 0.000000 13.259811 3.799963 1.654126 1.885925 -25.983305 -5.459209 0.000000 0.000000 0.000000 15.087891 -16.748495 -53.802220 0.000062 -75.561959 0.000033 0.000000 0.000000 0.000000 13.259811 3.799963 1.654126 3.311515 28.619603 7.422867 0.000000 0.000000 0.000000 -18.619360 40.137173 -3.342475 -0.000005 20.155777 0.000008 0.000000 0.000000 0.000000 
